<?xml version="1.0" encoding="UTF-8"?>
<svg xmlns="http://www.w3.org/2000/svg" xmlns:xlink="http://www.w3.org/1999/xlink" width="456px" height="456px" viewBox="0 0 456 456" version="1.1">
<defs>
<clipPath id="clip1">
  <path d="M 140.941406 215.65625 L 386.878906 215.65625 L 386.878906 240.496094 L 140.941406 240.496094 Z M 140.941406 215.65625 "/>
</clipPath>
<clipPath id="clip2">
  <path d="M 68.730469 197.910156 L 129.210938 197.910156 L 129.210938 258.238281 L 68.730469 258.238281 Z M 68.730469 197.910156 "/>
</clipPath>
<clipPath id="clip3">
  <path d="M 108 215.457031 L 116.472656 215.457031 L 116.472656 240.699219 L 108 240.699219 Z M 108 215.457031 "/>
</clipPath>
<clipPath id="clip4">
  <path d="M 81.472656 215.457031 L 90 215.457031 L 90 240.699219 L 81.472656 240.699219 Z M 81.472656 215.457031 "/>
</clipPath>
</defs>
<g id="surface1">
<rect x="0" y="0" width="456" height="456" style="fill:rgb(0%,0%,0%);fill-opacity:1;stroke:none;"/>
<g clip-path="url(#clip1)" clip-rule="nonzero">
<path style=" stroke:none;fill-rule:nonzero;fill:rgb(100%,100%,100%);fill-opacity:1;" d="M 153.847656 236.546875 C 154.792969 236.546875 155.625 236.316406 156.34375 235.859375 C 157.058594 235.394531 157.65625 234.777344 158.132812 234.003906 C 158.613281 233.234375 158.972656 232.355469 159.214844 231.363281 C 159.453125 230.367188 159.574219 229.328125 159.574219 228.246094 C 159.574219 227.089844 159.4375 225.992188 159.160156 224.945312 C 158.886719 223.902344 158.492188 222.980469 157.980469 222.1875 C 157.460938 221.398438 156.828125 220.769531 156.078125 220.300781 C 155.332031 219.832031 154.488281 219.597656 153.550781 219.597656 C 152.605469 219.597656 151.777344 219.832031 151.070312 220.292969 C 150.355469 220.753906 149.761719 221.371094 149.285156 222.140625 C 148.804688 222.910156 148.445312 223.796875 148.203125 224.796875 C 147.964844 225.796875 147.84375 226.832031 147.84375 227.902344 C 147.84375 229.054688 147.980469 230.152344 148.257812 231.199219 C 148.53125 232.246094 148.921875 233.164062 149.433594 233.957031 C 149.945312 234.75 150.574219 235.382812 151.320312 235.851562 C 152.058594 236.316406 152.902344 236.546875 153.847656 236.546875 Z M 153.273438 240.496094 C 151.488281 240.496094 149.84375 240.230469 148.335938 239.703125 C 146.828125 239.171875 145.523438 238.398438 144.429688 237.386719 C 143.339844 236.367188 142.484375 235.117188 141.867188 233.632812 C 141.25 232.15625 140.941406 230.464844 140.941406 228.5625 C 140.941406 226.617188 141.261719 224.847656 141.90625 223.261719 C 142.550781 221.675781 143.457031 220.320312 144.625 219.191406 C 145.789062 218.066406 147.175781 217.195312 148.789062 216.574219 C 150.40625 215.964844 152.183594 215.65625 154.132812 215.65625 C 155.914062 215.65625 157.558594 215.921875 159.066406 216.449219 C 160.574219 216.976562 161.871094 217.742188 162.96875 218.753906 C 164.0625 219.765625 164.917969 221.011719 165.539062 222.492188 C 166.15625 223.976562 166.464844 225.667969 166.464844 227.570312 C 166.464844 229.515625 166.140625 231.285156 165.488281 232.875 C 164.835938 234.46875 163.929688 235.828125 162.773438 236.953125 C 161.609375 238.082031 160.21875 238.953125 158.601562 239.570312 C 156.988281 240.1875 155.210938 240.496094 153.273438 240.496094 Z M 182.417969 219.929688 L 182.417969 240.164062 L 175.71875 240.164062 L 175.71875 219.929688 L 168.390625 219.929688 L 169.082031 215.980469 L 189.769531 215.980469 L 189.070312 219.929688 Z M 206.320312 219.929688 L 206.320312 240.164062 L 199.617188 240.164062 L 199.617188 219.929688 L 192.289062 219.929688 L 192.980469 215.980469 L 213.660156 215.980469 L 212.972656 219.929688 Z M 242.910156 235.082031 L 242.910156 237.96875 C 242.414062 238.363281 241.839844 238.71875 241.191406 239.035156 C 240.542969 239.347656 239.851562 239.609375 239.121094 239.828125 C 238.386719 240.042969 237.628906 240.207031 236.84375 240.320312 C 236.054688 240.4375 235.28125 240.496094 234.523438 240.496094 C 232.839844 240.496094 231.277344 240.222656 229.839844 239.671875 C 228.398438 239.121094 227.152344 238.335938 226.101562 237.320312 C 225.046875 236.300781 224.222656 235.070312 223.632812 233.628906 C 223.039062 232.183594 222.742188 230.578125 222.742188 228.804688 C 222.742188 227.398438 222.921875 226.09375 223.28125 224.886719 C 223.648438 223.683594 224.152344 222.59375 224.804688 221.621094 C 225.453125 220.644531 226.222656 219.789062 227.109375 219.042969 C 227.992188 218.300781 228.953125 217.679688 229.996094 217.179688 C 231.03125 216.675781 232.128906 216.300781 233.289062 216.042969 C 234.441406 215.785156 235.605469 215.65625 236.785156 215.65625 C 237.15625 215.65625 237.601562 215.671875 238.117188 215.695312 C 238.625 215.722656 239.164062 215.769531 239.730469 215.832031 C 240.300781 215.898438 240.878906 215.984375 241.46875 216.089844 C 242.054688 216.191406 242.617188 216.316406 243.160156 216.460938 L 242.199219 220.6875 L 241.867188 220.820312 C 240.921875 220.359375 240.015625 220.039062 239.148438 219.863281 C 238.28125 219.6875 237.496094 219.597656 236.804688 219.597656 C 235.726562 219.597656 234.746094 219.789062 233.863281 220.167969 C 232.984375 220.542969 232.230469 221.082031 231.605469 221.78125 C 230.976562 222.484375 230.492188 223.339844 230.152344 224.34375 C 229.808594 225.347656 229.636719 226.480469 229.636719 227.738281 C 229.636719 229.046875 229.824219 230.222656 230.199219 231.273438 C 230.574219 232.324219 231.117188 233.21875 231.828125 233.953125 C 232.535156 234.683594 233.398438 235.246094 234.417969 235.640625 C 235.4375 236.039062 236.589844 236.238281 237.878906 236.238281 C 238.414062 236.238281 238.917969 236.203125 239.386719 236.136719 C 239.855469 236.070312 240.292969 235.984375 240.703125 235.871094 C 241.121094 235.761719 241.507812 235.640625 241.867188 235.5 C 242.234375 235.363281 242.578125 235.226562 242.910156 235.082031 Z M 256.925781 231.449219 L 254.3125 231.449219 L 254.3125 240.164062 L 247.613281 240.164062 L 247.613281 215.980469 L 256.902344 215.980469 C 258.597656 215.980469 260.0625 216.152344 261.296875 216.496094 C 262.527344 216.835938 263.546875 217.296875 264.347656 217.875 C 265.15625 218.449219 265.746094 219.117188 266.125 219.867188 C 266.503906 220.625 266.695312 221.410156 266.695312 222.222656 C 266.695312 222.984375 266.550781 223.695312 266.261719 224.359375 C 265.976562 225.023438 265.609375 225.640625 265.160156 226.210938 C 264.707031 226.777344 264.210938 227.292969 263.664062 227.757812 C 263.121094 228.226562 262.59375 228.644531 262.089844 229.007812 L 268.753906 240.164062 L 261.015625 240.164062 Z M 254.3125 219.929688 L 254.3125 227.832031 L 258.082031 227.832031 C 258.332031 227.691406 258.585938 227.5 258.84375 227.257812 C 259.101562 227.015625 259.332031 226.726562 259.539062 226.394531 C 259.742188 226.054688 259.90625 225.675781 260.035156 225.25 C 260.160156 224.828125 260.222656 224.355469 260.222656 223.835938 C 260.222656 223.277344 260.140625 222.761719 259.972656 222.289062 C 259.8125 221.816406 259.570312 221.402344 259.25 221.050781 C 258.929688 220.699219 258.535156 220.425781 258.066406 220.226562 C 257.601562 220.027344 257.0625 219.929688 256.445312 219.929688 Z M 287.96875 240.164062 L 272.222656 240.164062 L 272.222656 215.980469 L 288.542969 215.980469 L 287.855469 219.929688 L 278.925781 219.929688 L 278.925781 225.90625 L 286.632812 225.90625 L 286.023438 229.515625 L 278.925781 229.515625 L 278.925781 236.222656 L 288.660156 236.222656 Z M 291.304688 240.164062 L 298.5625 215.980469 L 306.800781 215.980469 L 314.027344 240.164062 L 306.949219 240.164062 L 305.59375 234.882812 L 298.117188 234.882812 L 296.78125 240.164062 Z M 299.023438 231.265625 L 304.691406 231.265625 L 302.789062 223.808594 L 302.011719 220.078125 L 301.679688 220.078125 L 300.910156 223.808594 Z M 327.101562 219.929688 L 327.101562 240.164062 L 320.402344 240.164062 L 320.402344 219.929688 L 313.074219 219.929688 L 313.761719 215.980469 L 334.445312 215.980469 L 333.753906 219.929688 Z M 348.667969 236.546875 C 349.617188 236.546875 350.445312 236.316406 351.164062 235.859375 C 351.878906 235.394531 352.476562 234.777344 352.957031 234.003906 C 353.433594 233.234375 353.792969 232.355469 354.039062 231.363281 C 354.28125 230.367188 354.402344 229.328125 354.402344 228.246094 C 354.402344 227.089844 354.265625 225.992188 353.988281 224.945312 C 353.714844 223.902344 353.316406 222.980469 352.800781 222.1875 C 352.28125 221.398438 351.648438 220.769531 350.898438 220.300781 C 350.152344 219.832031 349.308594 219.597656 348.371094 219.597656 C 347.429688 219.597656 346.601562 219.832031 345.890625 220.292969 C 345.183594 220.753906 344.585938 221.371094 344.105469 222.140625 C 343.628906 222.910156 343.265625 223.796875 343.023438 224.796875 C 342.785156 225.796875 342.664062 226.832031 342.664062 227.902344 C 342.664062 229.054688 342.804688 230.152344 343.078125 231.199219 C 343.351562 232.246094 343.746094 233.164062 344.253906 233.957031 C 344.769531 234.75 345.398438 235.382812 346.140625 235.851562 C 346.878906 236.316406 347.722656 236.546875 348.667969 236.546875 Z M 348.09375 240.496094 C 346.308594 240.496094 344.664062 240.230469 343.160156 239.703125 C 341.652344 239.171875 340.351562 238.398438 339.257812 237.386719 C 338.164062 236.367188 337.304688 235.117188 336.6875 233.632812 C 336.070312 232.15625 335.761719 230.464844 335.761719 228.5625 C 335.761719 226.617188 336.085938 224.847656 336.730469 223.261719 C 337.375 221.675781 338.28125 220.320312 339.445312 219.191406 C 340.609375 218.066406 342 217.195312 343.613281 216.574219 C 345.226562 215.964844 347.007812 215.65625 348.953125 215.65625 C 350.734375 215.65625 352.378906 215.921875 353.886719 216.449219 C 355.394531 216.976562 356.695312 217.742188 357.789062 218.753906 C 358.886719 219.765625 359.742188 221.011719 360.359375 222.492188 C 360.976562 223.976562 361.285156 225.667969 361.285156 227.570312 C 361.285156 229.515625 360.960938 231.285156 360.3125 232.875 C 359.664062 234.46875 358.757812 235.828125 357.59375 236.953125 C 356.429688 238.082031 355.042969 238.953125 353.429688 239.570312 C 351.8125 240.1875 350.03125 240.496094 348.09375 240.496094 Z M 375.050781 231.449219 L 372.441406 231.449219 L 372.441406 240.164062 L 365.742188 240.164062 L 365.742188 215.980469 L 375.03125 215.980469 C 376.722656 215.980469 378.1875 216.152344 379.425781 216.496094 C 380.65625 216.835938 381.671875 217.296875 382.472656 217.875 C 383.277344 218.449219 383.867188 219.117188 384.25 219.867188 C 384.628906 220.625 384.820312 221.410156 384.820312 222.222656 C 384.820312 222.984375 384.675781 223.695312 384.386719 224.359375 C 384.101562 225.023438 383.734375 225.640625 383.285156 226.210938 C 382.835938 226.777344 382.335938 227.292969 381.789062 227.757812 C 381.246094 228.226562 380.71875 228.644531 380.214844 229.007812 L 386.882812 240.164062 L 379.140625 240.164062 Z M 372.441406 219.929688 L 372.441406 227.832031 L 376.199219 227.832031 C 376.457031 227.691406 376.714844 227.5 376.96875 227.257812 C 377.226562 227.015625 377.460938 226.726562 377.667969 226.394531 C 377.871094 226.054688 378.035156 225.675781 378.160156 225.25 C 378.285156 224.828125 378.347656 224.355469 378.347656 223.835938 C 378.347656 223.277344 378.265625 222.761719 378.097656 222.289062 C 377.9375 221.816406 377.695312 221.402344 377.375 221.050781 C 377.054688 220.699219 376.660156 220.425781 376.191406 220.226562 C 375.722656 220.027344 375.183594 219.929688 374.570312 219.929688 Z M 372.441406 219.929688 "/>
</g>
<g clip-path="url(#clip2)" clip-rule="nonzero">
<path style="fill-rule:nonzero;fill:rgb(100%,100%,100%);fill-opacity:1;stroke-width:1;stroke-linecap:butt;stroke-linejoin:miter;stroke:rgb(100%,100%,100%);stroke-opacity:1;stroke-miterlimit:4;" d="M -0.00176399 48.635905 C -0.00176399 21.774008 21.771701 0.000542766 48.633598 0.000542766 C 75.489213 0.000542766 97.26896 21.774008 97.26896 48.635905 C 97.26896 75.49152 75.489213 97.264985 48.633598 97.264985 C 21.771701 97.264985 -0.00176399 75.49152 -0.00176399 48.635905 Z M 48.633598 93.66539 C 73.504097 93.66539 93.663083 73.500121 93.663083 48.635905 C 93.663083 23.765406 73.504097 3.600138 48.633598 3.600138 C 23.7631 3.600138 3.604113 23.765406 3.604113 48.635905 C 3.604113 73.500121 23.7631 93.66539 48.633598 93.66539 Z M 48.633598 93.66539 " transform="matrix(0.621815,0,0,0.621815,68.731566,197.8356)"/>
</g>
<g clip-path="url(#clip3)" clip-rule="nonzero">
<path style=" stroke:none;fill-rule:nonzero;fill:rgb(100%,100%,100%);fill-opacity:1;" d="M 111.546875 215.90625 C 111.269531 215.621094 110.890625 215.457031 110.496094 215.457031 C 110.492188 215.457031 110.488281 215.457031 110.484375 215.457031 C 110.089844 215.457031 109.714844 215.609375 109.4375 215.890625 L 109.289062 216.039062 C 108.71875 216.609375 108.710938 217.53125 109.273438 218.113281 C 111.871094 220.796875 113.304688 224.335938 113.304688 228.078125 C 113.304688 231.816406 111.871094 235.355469 109.273438 238.042969 C 108.710938 238.621094 108.71875 239.546875 109.289062 240.117188 L 109.441406 240.265625 C 109.714844 240.542969 110.09375 240.699219 110.484375 240.699219 C 110.488281 240.699219 110.492188 240.699219 110.496094 240.699219 C 110.890625 240.695312 111.269531 240.53125 111.546875 240.246094 C 114.722656 236.96875 116.472656 232.644531 116.472656 228.078125 C 116.472656 223.507812 114.722656 219.183594 111.546875 215.90625 Z M 111.546875 215.90625 "/>
</g>
<g clip-path="url(#clip4)" clip-rule="nonzero">
<path style=" stroke:none;fill-rule:nonzero;fill:rgb(100%,100%,100%);fill-opacity:1;" d="M 84.640625 228.078125 C 84.640625 224.339844 86.074219 220.800781 88.671875 218.113281 C 89.234375 217.53125 89.226562 216.609375 88.65625 216.035156 L 88.507812 215.886719 C 88.230469 215.609375 87.851562 215.457031 87.460938 215.457031 C 87.457031 215.457031 87.453125 215.457031 87.449219 215.457031 C 87.050781 215.457031 86.675781 215.621094 86.398438 215.90625 C 83.222656 219.183594 81.472656 223.507812 81.472656 228.078125 C 81.472656 232.644531 83.222656 236.96875 86.398438 240.246094 C 86.675781 240.53125 87.054688 240.695312 87.449219 240.699219 C 87.453125 240.699219 87.457031 240.699219 87.460938 240.699219 C 87.851562 240.699219 88.230469 240.542969 88.507812 240.265625 L 88.65625 240.113281 C 89.226562 239.542969 89.234375 238.621094 88.671875 238.039062 C 86.074219 235.355469 84.640625 231.816406 84.640625 228.078125 Z M 84.640625 228.078125 "/>
</g>
<path style=" stroke:none;fill-rule:nonzero;fill:rgb(100%,100%,100%);fill-opacity:1;" d="M 106.667969 221.582031 C 106.390625 221.296875 106.011719 221.132812 105.613281 221.132812 C 105.613281 221.132812 105.609375 221.132812 105.605469 221.132812 C 105.210938 221.132812 104.835938 221.289062 104.558594 221.566406 L 104.484375 221.640625 C 103.917969 222.210938 103.910156 223.132812 104.46875 223.710938 C 105.609375 224.886719 106.238281 226.4375 106.238281 228.078125 C 106.238281 229.714844 105.609375 231.265625 104.472656 232.441406 C 103.910156 233.019531 103.917969 233.941406 104.484375 234.511719 L 104.558594 234.585938 C 104.832031 234.863281 105.210938 235.023438 105.605469 235.023438 C 105.609375 235.023438 105.613281 235.023438 105.613281 235.023438 C 106.011719 235.019531 106.390625 234.855469 106.667969 234.570312 C 108.363281 232.820312 109.296875 230.515625 109.296875 228.078125 C 109.296875 225.636719 108.363281 223.332031 106.667969 221.582031 Z M 106.667969 221.582031 "/>
<path style=" stroke:none;fill-rule:nonzero;fill:rgb(100%,100%,100%);fill-opacity:1;" d="M 93.457031 221.636719 L 93.382812 221.566406 C 93.105469 221.289062 92.730469 221.132812 92.339844 221.132812 C 92.335938 221.132812 92.332031 221.132812 92.328125 221.132812 C 91.929688 221.132812 91.550781 221.296875 91.277344 221.582031 C 89.582031 223.332031 88.648438 225.636719 88.648438 228.078125 C 88.648438 230.515625 89.582031 232.824219 91.277344 234.574219 C 91.550781 234.855469 91.929688 235.019531 92.328125 235.023438 C 92.332031 235.023438 92.335938 235.023438 92.339844 235.023438 C 92.730469 235.023438 93.105469 234.867188 93.382812 234.589844 L 93.457031 234.515625 C 94.027344 233.945312 94.035156 233.023438 93.472656 232.441406 C 92.335938 231.265625 91.707031 229.714844 91.707031 228.078125 C 91.707031 226.4375 92.335938 224.890625 93.472656 223.710938 C 94.035156 223.132812 94.027344 222.207031 93.457031 221.636719 Z M 93.457031 221.636719 "/>
<path style=" stroke:none;fill-rule:nonzero;fill:rgb(100%,100%,100%);fill-opacity:1;" d="M 102.175781 228.019531 C 102.175781 229.789062 100.742188 231.226562 98.972656 231.226562 C 97.203125 231.226562 95.769531 229.789062 95.769531 228.019531 C 95.769531 226.25 97.203125 224.816406 98.972656 224.816406 C 100.742188 224.816406 102.175781 226.25 102.175781 228.019531 Z M 102.175781 228.019531 "/>
</g>
</svg>
