<svg xmlns="http://www.w3.org/2000/svg" version="1.1" xmlns:xlink="http://www.w3.org/1999/xlink" xmlns:svgjs="http://svgjs.dev/svgjs" width="1000" height="1000" viewBox="0 0 1000 1000"><rect width="1000" height="1000" fill="#000000"></rect><g transform="matrix(0.7,0,0,0.7,149.5757656946497,434.01748386706436)"><svg viewBox="0 0 396 75" data-background-color="#ffffff" preserveAspectRatio="xMidYMid meet" height="189" width="1000" xmlns="http://www.w3.org/2000/svg" xmlns:xlink="http://www.w3.org/1999/xlink"><g id="tight-bounds" transform="matrix(1,0,0,1,0.23999540702675404,-0.09494550287092807)"><svg viewBox="0 0 395.52 75.18989100574186" height="75.18989100574186" width="395.52"><g><svg viewBox="0 0 511.6474624019107 97.2661734712886" height="75.18989100574186" width="395.52"><g transform="matrix(1,0,0,1,116.1274624019107,28.659340007236807)"><svg viewBox="0 0 395.52 39.94749345681498" height="39.94749345681498" width="395.52"><g id="textblocktransform"><svg viewBox="0 0 395.52 39.94749345681498" height="39.94749345681498" width="395.52" id="textblock"><g><svg viewBox="0 0 395.52 39.94749345681498" height="39.94749345681498" width="395.52"><g transform="matrix(1,0,0,1,0,0)"><svg width="395.52" viewBox="2.440000057220459 -36.25 363.7699890136719 36.7400016784668" height="39.94749345681498" data-palette-color="#7a26c1"><path d="M21.53-5.35L21.53-5.35Q23.63-5.35 25.22-6.37 26.81-7.4 27.87-9.11 28.93-10.82 29.47-13.02 30-15.23 30-17.63L30-17.63Q30-20.19 29.39-22.51 28.78-24.83 27.64-26.59 26.49-28.34 24.83-29.38 23.17-30.42 21.09-30.42L21.09-30.42Q18.99-30.42 17.42-29.39 15.84-28.37 14.78-26.66 13.72-24.95 13.18-22.73 12.65-20.51 12.65-18.14L12.65-18.14Q12.65-15.58 13.26-13.26 13.87-10.94 15-9.18 16.14-7.42 17.79-6.38 19.43-5.35 21.53-5.35ZM20.68 0.49L20.68 0.49Q16.72 0.49 13.38-0.68 10.03-1.86 7.6-4.11 5.18-6.37 3.81-9.66 2.44-12.94 2.44-17.16L2.44-17.16Q2.44-21.48 3.87-25 5.3-28.52 7.89-31.02 10.47-33.52 14.05-34.89 17.63-36.25 21.95-36.25L21.95-36.25Q25.9-36.25 29.25-35.08 32.59-33.91 35.02-31.67 37.45-29.42 38.82-26.14 40.19-22.85 40.19-18.63L40.19-18.63Q40.19-14.31 38.75-10.78 37.3-7.25 34.73-4.75 32.15-2.25 28.56-0.88 24.98 0.49 20.68 0.49ZM63.79-29.93L63.79 0 53.88 0 53.88-29.93 43.04-29.93 44.06-35.77 74.66-35.77 73.63-29.93 63.79-29.93ZM99.14-29.93L99.14 0 89.23 0 89.23-29.93 78.39-29.93 79.41-35.77 110-35.77 108.98-29.93 99.14-29.93ZM153.26-7.52L153.26-3.25Q152.16-2.37 150.72-1.67 149.28-0.98 147.66-0.5 146.03-0.02 144.29 0.23 142.54 0.49 140.86 0.49L140.86 0.49Q137.12 0.49 133.93-0.73 130.73-1.95 128.4-4.21 126.06-6.47 124.75-9.67 123.43-12.87 123.43-16.8L123.43-16.8Q123.43-19.92 124.23-22.6 125.04-25.27 126.48-27.43 127.92-29.59 129.89-31.24 131.85-32.89 134.16-34 136.46-35.11 139.03-35.68 141.59-36.25 144.2-36.25L144.2-36.25Q145.03-36.25 146.17-36.19 147.3-36.13 148.56-35.99 149.82-35.84 151.13-35.61 152.43-35.38 153.63-35.06L153.63-35.06 152.21-28.81 151.72-28.61Q149.62-29.64 147.7-30.03 145.77-30.42 144.23-30.42L144.23-30.42Q141.84-30.42 139.88-29.58 137.93-28.74 136.54-27.19 135.15-25.63 134.39-23.4 133.63-21.17 133.63-18.38L133.63-18.38Q133.63-15.48 134.46-13.15 135.29-10.82 136.87-9.19 138.44-7.57 140.7-6.69 142.96-5.81 145.82-5.81L145.82-5.81Q147.01-5.81 148.05-5.96 149.09-6.1 150-6.35 150.92-6.59 151.72-6.9 152.53-7.2 153.26-7.52L153.26-7.52ZM173.99-12.89L170.13-12.89 170.13 0 160.22 0 160.22-35.77 173.96-35.77Q177.72-35.77 180.46-35.01 183.19-34.25 184.97-32.97 186.76-31.69 187.6-30.02 188.44-28.34 188.44-26.54L188.44-26.54Q188.44-24.85 187.8-23.38 187.17-21.9 186.17-20.64 185.17-19.38 183.96-18.35 182.75-17.31 181.63-16.5L181.63-16.5 191.49 0 180.04 0 173.99-12.89ZM170.13-29.93L170.13-18.24 175.7-18.24Q176.26-18.55 176.83-19.09 177.4-19.63 177.86-20.37 178.31-21.12 178.59-22.06 178.87-23 178.87-24.15L178.87-24.15Q178.87-25.39 178.5-26.44 178.14-27.49 177.43-28.27 176.72-29.05 175.68-29.49 174.65-29.93 173.28-29.93L173.28-29.93 170.13-29.93ZM219.91 0L196.62 0 196.62-35.77 220.76-35.77 219.74-29.93 206.53-29.93 206.53-21.09 217.93-21.09 217.03-15.75 206.53-15.75 206.53-5.83 220.93-5.83 219.91 0ZM224.84 0L235.58-35.77 247.76-35.77 258.45 0 247.98 0 245.98-7.81 234.92-7.81 232.94 0 224.84 0ZM236.26-13.16L244.64-13.16 241.83-24.19 240.68-29.71 240.19-29.71 239.05-24.19 236.26-13.16ZM277.79-29.93L277.79 0 267.88 0 267.88-29.93 257.04-29.93 258.06-35.77 288.65-35.77 287.63-29.93 277.79-29.93ZM309.69-5.35L309.69-5.35Q311.79-5.35 313.38-6.37 314.97-7.4 316.03-9.11 317.09-10.82 317.63-13.02 318.17-15.23 318.17-17.63L318.17-17.63Q318.17-20.19 317.56-22.51 316.95-24.83 315.8-26.59 314.65-28.34 312.99-29.38 311.33-30.42 309.25-30.42L309.25-30.42Q307.16-30.42 305.58-29.39 304.01-28.37 302.94-26.66 301.88-24.95 301.34-22.73 300.81-20.51 300.81-18.14L300.81-18.14Q300.81-15.58 301.42-13.26 302.03-10.94 303.16-9.18 304.3-7.42 305.95-6.38 307.59-5.35 309.69-5.35ZM308.84 0.49L308.84 0.49Q304.88 0.49 301.54-0.68 298.2-1.86 295.77-4.11 293.34-6.37 291.97-9.66 290.6-12.94 290.6-17.16L290.6-17.16Q290.6-21.48 292.03-25 293.46-28.52 296.05-31.02 298.63-33.52 302.21-34.89 305.79-36.25 310.11-36.25L310.11-36.25Q314.06-36.25 317.41-35.08 320.75-33.91 323.18-31.67 325.61-29.42 326.98-26.14 328.35-22.85 328.35-18.63L328.35-18.63Q328.35-14.31 326.91-10.78 325.47-7.25 322.89-4.75 320.31-2.25 316.73-0.88 313.14 0.49 308.84 0.49ZM348.71-12.89L344.85-12.89 344.85 0 334.94 0 334.94-35.77 348.68-35.77Q352.44-35.77 355.18-35.01 357.91-34.25 359.69-32.97 361.47-31.69 362.32-30.02 363.16-28.34 363.16-26.54L363.16-26.54Q363.16-24.85 362.52-23.38 361.89-21.9 360.89-20.64 359.89-19.38 358.68-18.35 357.47-17.31 356.35-16.5L356.35-16.5 366.21 0 354.76 0 348.71-12.89ZM344.85-29.93L344.85-18.24 350.41-18.24Q350.98-18.55 351.55-19.09 352.12-19.63 352.58-20.37 353.03-21.12 353.31-22.06 353.59-23 353.59-24.15L353.59-24.15Q353.59-25.39 353.22-26.44 352.86-27.49 352.15-28.27 351.44-29.05 350.4-29.49 349.36-29.93 348-29.93L348-29.93 344.85-29.93Z" opacity="1" transform="matrix(1,0,0,1,0,0)" fill="#ffffff" class="undefined-text-0" data-fill-palette-color="primary" id="text-0"></path></svg></g></svg></g></svg></g></svg></g><g><svg viewBox="0 0 97.2661734712886 97.2661734712886" height="97.2661734712886" width="97.2661734712886"><g><svg></svg></g><g id="icon-0"><svg viewBox="0 0 97.2661734712886 97.2661734712886" height="97.2661734712886" width="97.2661734712886"><g><path d="M0 48.633c0-26.859 21.774-48.633 48.633-48.633 26.859 0 48.633 21.774 48.633 48.633 0 26.859-21.774 48.633-48.633 48.633-26.859 0-48.633-21.774-48.633-48.633zM48.633 93.664c24.87 0 45.031-20.161 45.031-45.031 0-24.87-20.161-45.031-45.031-45.03-24.87 0-45.031 20.161-45.03 45.03 0 24.87 20.161 45.031 45.03 45.031z" data-fill-palette-color="accent" fill="#ffffff" stroke="transparent"></path></g><g transform="matrix(1,0,0,1,20.489208954122887,28.336196807223235)"><svg viewBox="0 0 56.28775556304282 40.593779856842126" height="40.593779856842126" width="56.28775556304282"><g><svg xmlns="http://www.w3.org/2000/svg" xmlns:xlink="http://www.w3.org/1999/xlink" version="1.1" x="0" y="0" viewBox="14.5 24.518997192382812 71 51.204002380371094" enable-background="new 0 0 100 100" xml:space="preserve" height="40.593779856842126" width="56.28775556304282" class="icon-s-0" data-fill-palette-color="accent" id="s-0"><g fill="#a437db" data-fill-palette-color="accent"><g fill="#a437db" data-fill-palette-color="accent"><path fill="#ffffff" d="M75.505 25.432c-0.56-0.578-1.327-0.906-2.132-0.913-0.008 0-0.015 0-0.022 0-0.796 0-1.56 0.316-2.123 0.88l-0.302 0.302c-1.156 1.158-1.171 3.029-0.033 4.206 5.274 5.451 8.18 12.63 8.18 20.214 0 7.585-2.905 14.764-8.18 20.214-1.141 1.178-1.124 3.054 0.037 4.211l0.303 0.302c0.562 0.561 1.324 0.875 2.118 0.875 0.009 0 0.018 0 0.026 0 0.803-0.007 1.569-0.336 2.128-0.912C81.95 68.158 85.5 59.39 85.5 50.121 85.5 40.853 81.95 32.085 75.505 25.432z" data-fill-palette-color="accent"></path><path fill="#ffffff" d="M20.928 50.121c0-7.583 2.905-14.762 8.18-20.214 1.14-1.177 1.124-3.051-0.036-4.209l-0.303-0.302c-0.563-0.562-1.325-0.877-2.12-0.877-0.008 0-0.017 0-0.025 0-0.804 0.007-1.571 0.335-2.13 0.913C18.049 32.085 14.5 40.853 14.5 50.121c0 9.269 3.549 18.037 9.995 24.689 0.56 0.578 1.327 0.906 2.131 0.913 0.008 0 0.016 0 0.024 0 0.795 0 1.559-0.315 2.121-0.879l0.303-0.303c1.158-1.158 1.174-3.03 0.035-4.207C23.833 64.884 20.928 57.705 20.928 50.121z" data-fill-palette-color="accent"></path><path fill="#ffffff" d="M65.611 36.945c-0.561-0.579-1.33-0.907-2.136-0.913-0.006 0-0.013 0-0.019 0-0.799 0-1.565 0.319-2.128 0.886l-0.147 0.148c-1.151 1.159-1.164 3.026-0.028 4.201 2.311 2.387 3.583 5.532 3.583 8.854 0 3.323-1.272 6.468-3.582 8.854-1.137 1.175-1.125 3.042 0.027 4.201l0.147 0.148c0.562 0.567 1.329 0.886 2.128 0.886 0.006 0 0.013 0 0.019 0 0.806-0.005 1.575-0.334 2.136-0.912 3.44-3.551 5.335-8.23 5.335-13.177C70.946 45.175 69.052 40.496 65.611 36.945z" data-fill-palette-color="accent"></path><path fill="#ffffff" d="M38.812 37.06l-0.148-0.148c-0.562-0.563-1.326-0.879-2.121-0.879-0.008 0-0.016 0-0.024 0-0.804 0.006-1.571 0.335-2.131 0.913-3.439 3.55-5.333 8.229-5.333 13.176 0 4.947 1.894 9.627 5.334 13.177 0.559 0.577 1.327 0.905 2.131 0.912 0.008 0 0.016 0 0.023 0 0.795 0 1.559-0.315 2.121-0.879l0.148-0.148c1.158-1.158 1.173-3.03 0.035-4.208-2.31-2.387-3.583-5.53-3.583-8.854 0-3.322 1.272-6.467 3.583-8.854C39.986 40.09 39.971 38.217 38.812 37.06z" data-fill-palette-color="accent"></path></g><circle fill="#ffffff" cx="50" cy="50.009" r="6.5" data-fill-palette-color="accent"></circle></g></svg></g></svg></g></svg></g></svg></g></svg></g><defs></defs></svg><rect width="395.52" height="75.18989100574186" fill="none" stroke="none" visibility="hidden"></rect></g></svg></g></svg>